Coordinates
version=1
nRows=27
nColumns=38
inDegrees=no

Units are S.I. units (second, meters, Newtons, ...)
If the header above contains a line with 'inDegrees', this indicates whether rotational values are in degrees (yes) or radians (no).

endheader
time	pelvis_tilt	pelvis_list	pelvis_rotation	pelvis_tx	pelvis_ty	pelvis_tz	hip_flexion_r	hip_adduction_r	hip_rotation_r	knee_angle_r	ankle_angle_r	subtalar_angle_r	mtp_angle_r	hip_flexion_l	hip_adduction_l	hip_rotation_l	knee_angle_l	ankle_angle_l	subtalar_angle_l	mtp_angle_l	lumbar_extension	lumbar_bending	lumbar_rotation	arm_flex_r	arm_add_r	arm_rot_r	elbow_flex_r	pro_sup_r	wrist_flex_r	wrist_dev_r	arm_flex_l	arm_add_l	arm_rot_l	elbow_flex_l	pro_sup_l	wrist_flex_l	wrist_dev_l
21.7	2.36817	1.51925	-0.904766	0.800644	-0.602788	0.970216	-0.211477	0.0862048	-0.0844624	0.156724	0.19352	0	0	0.108944	-0.0752364	-0.172707	0.146785	-0.0390937	0	0	-0.213074	0.0726578	0.122488	0.739448	-0.0692387	0.32539	1.09151	1.5708	0	0	0.921371	-0.128841	0.549752	0.766015	1.5708	0	0
21.71	2.38389	1.51523	-0.933688	0.800864	-0.601305	0.970197	-0.193798	0.0799944	-0.122841	0.216396	0.226246	0	0	0.104505	-0.0735972	-0.157331	0.160082	-0.0273716	0	0	-0.215426	0.0722126	0.129495	0.734733	-0.0752963	0.271966	1.07815	1.5708	0	0	0.919958	-0.131652	0.549506	0.768647	1.5708	0	0
21.72	2.35361	1.51694	-0.905275	0.800114	-0.60106	0.970086	-0.188161	0.0774744	-0.131811	0.223573	0.230912	0	0	0.10802	-0.0729732	-0.157573	0.162921	-0.0257128	0	0	-0.21509	0.0730397	0.128022	0.741206	-0.0734936	0.270244	1.07304	1.5708	0	0	0.92178	-0.133021	0.549749	0.770598	1.5708	0	0
21.73	2.31319	1.51714	-0.866801	0.799397	-0.600827	0.97001	-0.186344	0.0775461	-0.132365	0.224311	0.231297	0	0	0.111124	-0.0738296	-0.157669	0.166757	-0.0235541	0	0	-0.215512	0.0755581	0.125678	0.75134	-0.0742131	0.27988	1.06416	1.5708	0	0	0.922659	-0.136743	0.549995	0.774786	1.5708	0	0
21.74	2.28058	1.51706	-0.836223	0.798663	-0.600639	0.969956	-0.185811	0.0777506	-0.130579	0.22316	0.230709	0	0	0.113306	-0.0744406	-0.157881	0.169569	-0.0221055	0	0	-0.216599	0.0779026	0.123716	0.762196	-0.0755579	0.290659	1.05523	1.5708	0	0	0.924144	-0.140558	0.550795	0.778804	1.5708	0	0
21.75	2.19766	1.51975	-0.743704	0.797024	-0.601518	0.970237	-0.208328	0.0861229	-0.0762869	0.150734	0.188378	0	0	0.119139	-0.0775771	-0.175958	0.157787	-0.0333158	0	0	-0.216084	0.081604	0.110989	0.774468	-0.0757963	0.298615	1.04549	1.5708	0	0	0.92792	-0.143681	0.549614	0.782031	1.5708	0	0
21.76	2.24283	1.51594	-0.803136	0.797283	-0.600237	0.969997	-0.190935	0.0793884	-0.114253	0.210941	0.223331	0	0	0.114504	-0.0751516	-0.159294	0.172562	-0.0205269	0	0	-0.220638	0.0816505	0.121837	0.782439	-0.078454	0.308101	1.03866	1.5708	0	0	0.928397	-0.146406	0.551405	0.785423	1.5708	0	0
21.77	2.20881	1.519	-0.771582	0.796498	-0.60008	0.969668	-0.184259	0.0759068	-0.121961	0.217651	0.229264	0	0	0.119352	-0.0731917	-0.160124	0.175595	-0.0190267	0	0	-0.218956	0.0814337	0.12132	0.791379	-0.0799821	0.316549	1.02965	1.5708	0	0	0.930376	-0.148959	0.55289	0.788749	1.5708	0	0
21.78	2.17186	1.52096	-0.736967	0.795767	-0.599901	0.969418	-0.181448	0.0745394	-0.121272	0.217642	0.230545	0	0	0.123508	-0.0722835	-0.161208	0.178898	-0.0173973	0	0	-0.218156	0.0820276	0.121172	0.800361	-0.0814405	0.325597	1.01994	1.5708	0	0	0.932245	-0.151006	0.553871	0.792233	1.5708	0	0
21.79	2.1389	1.5224	-0.706109	0.795063	-0.599726	0.969235	-0.180081	0.0736648	-0.118711	0.215756	0.23036	0	0	0.127259	-0.0716939	-0.1622	0.182623	-0.0160204	0	0	-0.218082	0.0826839	0.121811	0.807437	-0.0833389	0.331616	1.01362	1.5708	0	0	0.934599	-0.151549	0.554512	0.794156	1.5708	0	0
21.8	2.10788	1.52358	-0.676935	0.794358	-0.599552	0.969082	-0.17879	0.07273	-0.117172	0.214353	0.230302	0	0	0.13049	-0.0711636	-0.163195	0.185843	-0.0146511	0	0	-0.218287	0.083446	0.122883	0.813496	-0.0854834	0.336153	1.00855	1.5708	0	0	0.937248	-0.151212	0.555481	0.794932	1.5708	0	0
21.81	2.08173	1.5244	-0.652231	0.793625	-0.599338	0.968986	-0.177984	0.0717293	-0.116351	0.213003	0.230185	0	0	0.132746	-0.070622	-0.16436	0.18784	-0.0136041	0	0	-0.218889	0.0843626	0.12405	0.818666	-0.0876718	0.339737	1.00452	1.5708	0	0	0.939894	-0.150219	0.556354	0.794939	1.5708	0	0
21.82	2.0534	1.52495	-0.62478	0.792865	-0.599039	0.968945	-0.177488	0.0708692	-0.116187	0.211478	0.229736	0	0	0.134547	-0.0702852	-0.165411	0.189235	-0.0126499	0	0	-0.219442	0.0856415	0.124811	0.822462	-0.0899953	0.342453	1.00264	1.5708	0	0	0.941967	-0.149001	0.557051	0.794982	1.5708	0	0
21.83	2.02135	1.52528	-0.593071	0.792084	-0.598659	0.968954	-0.177031	0.0701643	-0.116652	0.21001	0.228978	0	0	0.135964	-0.0700837	-0.166255	0.189836	-0.0120855	0	0	-0.219744	0.0873709	0.124867	0.825629	-0.0926208	0.346233	1.00177	1.5708	0	0	0.943224	-0.147857	0.557627	0.795203	1.5708	0	0
21.84	1.98584	1.52534	-0.557452	0.791301	-0.598189	0.969	-0.176727	0.0698131	-0.11712	0.208394	0.227692	0	0	0.137009	-0.0700006	-0.166629	0.189634	-0.0119168	0	0	-0.219787	0.0894646	0.124513	0.82832	-0.0956161	0.350433	1.00141	1.5708	0	0	0.944053	-0.146703	0.558542	0.795285	1.5708	0	0
21.85	1.94776	1.52518	-0.518688	0.790503	-0.597655	0.969065	-0.1764	0.0697614	-0.117846	0.206907	0.226248	0	0	0.137881	-0.0699658	-0.166304	0.188895	-0.01201	0	0	-0.219653	0.0918033	0.123785	0.831084	-0.0987934	0.354756	1.00056	1.5708	0	0	0.944664	-0.145526	0.559322	0.795691	1.5708	0	0
21.86	1.9128	1.52479	-0.482758	0.789719	-0.597072	0.969167	-0.176279	0.0698622	-0.118793	0.205604	0.224682	0	0	0.138445	-0.0700791	-0.166149	0.188145	-0.0119273	0	0	-0.219647	0.0942396	0.122881	0.834086	-0.101619	0.358838	0.998969	1.5708	0	0	0.945206	-0.144058	0.559174	0.795934	1.5708	0	0
21.87	1.88175	1.52436	-0.450572	0.788948	-0.596436	0.969287	-0.176203	0.0698955	-0.119993	0.204639	0.223117	0	0	0.138692	-0.0701007	-0.165896	0.187077	-0.0118996	0	0	-0.219728	0.096584	0.121825	0.83712	-0.104255	0.3625	0.997198	1.5708	0	0	0.94569	-0.1425	0.558305	0.796219	1.5708	0	0
21.88	1.853	1.52385	-0.420697	0.788211	-0.59578	0.969415	-0.176054	0.0700013	-0.121121	0.20405	0.221695	0	0	0.138659	-0.0701825	-0.165758	0.185712	-0.0119216	0	0	-0.219878	0.0988854	0.120874	0.840268	-0.106416	0.365281	0.994842	1.5708	0	0	0.946285	-0.141074	0.557791	0.796892	1.5708	0	0
21.89	1.82699	1.52334	-0.393787	0.787516	-0.595093	0.969548	-0.175862	0.0700481	-0.121608	0.203759	0.220271	0	0	0.138387	-0.0702866	-0.166056	0.184225	-0.01192	0	0	-0.220047	0.101002	0.120303	0.843342	-0.108193	0.367482	0.992174	1.5708	0	0	0.947138	-0.139609	0.557514	0.797375	1.5708	0	0
21.9	1.80095	1.52287	-0.366966	0.786849	-0.594367	0.969684	-0.175525	0.070041	-0.121703	0.203669	0.218742	0	0	0.138108	-0.0703007	-0.16615	0.182672	-0.0120333	0	0	-0.219956	0.102962	0.119674	0.846226	-0.10985	0.369821	0.989657	1.5708	0	0	0.94819	-0.138384	0.557883	0.797542	1.5708	0	0
21.91	1.77552	1.52238	-0.341016	0.786233	-0.593662	0.969837	-0.174796	0.0699649	-0.121976	0.204333	0.217435	0	0	0.137782	-0.0703872	-0.166315	0.181235	-0.0120549	0	0	-0.219866	0.104735	0.119087	0.848446	-0.111682	0.371745	0.988968	1.5708	0	0	0.949565	-0.137413	0.559003	0.797351	1.5708	0	0
21.92	1.74846	1.5217	-0.313789	0.785652	-0.593006	0.969993	-0.173553	0.0699894	-0.122403	0.20575	0.216201	0	0	0.137611	-0.0707247	-0.166346	0.179926	-0.0120828	0	0	-0.219872	0.106595	0.118879	0.850228	-0.113348	0.372724	0.989253	1.5708	0	0	0.951208	-0.136494	0.560928	0.796923	1.5708	0	0
21.93	1.71988	1.52089	-0.285304	0.78509	-0.592385	0.970137	-0.171841	0.0700752	-0.122792	0.207613	0.214961	0	0	0.137768	-0.071194	-0.166037	0.179074	-0.0119483	0	0	-0.219872	0.108524	0.119134	0.851675	-0.115177	0.373254	0.989967	1.5708	0	0	0.952824	-0.13563	0.563754	0.796798	1.5708	0	0
21.94	1.69177	1.52003	-0.258041	0.784609	-0.591751	0.970301	-0.16975	0.0700618	-0.122737	0.210236	0.213749	0	0	0.137754	-0.0716857	-0.166051	0.178089	-0.0120361	0	0	-0.219848	0.110329	0.120255	0.852837	-0.117256	0.373855	0.990049	1.5708	0	0	0.953792	-0.134753	0.56659	0.797619	1.5708	0	0
21.95	1.66085	1.51916	-0.228702	0.784225	-0.59108	0.970477	-0.167063	0.0699449	-0.122137	0.21376	0.212658	0	0	0.137682	-0.0722703	-0.166934	0.176949	-0.0122081	0	0	-0.219519	0.111963	0.122049	0.853734	-0.119974	0.375778	0.989299	1.5708	0	0	0.953823	-0.133695	0.568587	0.799476	1.5708	0	0
21.96	1.67739	1.50091	-0.248393	0.783907	-0.590871	0.972418	-0.1592	0.0794753	-0.167794	0.239523	0.21334	0	0	0.131133	-0.091259	-0.1689	0.176494	-0.0124991	0	0	-0.229992	0.132174	0.129146	0.858059	-0.125309	0.380933	0.986993	1.5708	0	0	0.9524	-0.129141	0.562796	0.801253	1.5708	0	0
